<?xml version="1.0" encoding="utf-8"?>
<!-- Generator: Adobe Illustrator 25.4.1, SVG Export Plug-In . SVG Version: 6.00 Build 0)  -->
<svg version="1.1" id="圖層_1" xmlns="http://www.w3.org/2000/svg" xmlns:xlink="http://www.w3.org/1999/xlink" x="0px" y="0px"
	 viewBox="0 0 46 46" style="enable-background:new 0 0 46 46;" xml:space="preserve">
<rect style="fill:#FFFFFF;" width="46" height="46"/>
<g>
	<path d="M28,14.6c0.1,0.1,0.3,0.2,0.5,0.4c3.1,2.3,6.2,4.5,9.3,6.7c1.5,1.1,1.6,1.9,0.2,3c-4.6,3.7-9.2,7.4-13.7,11.1
		c-1.9,1.5-4,2-6.4,1.9c-0.6,0-1.3-0.1-1.9-0.1c-0.1,0.1-0.1,0.1-0.2,0.2c0.4,0.6,0.6,1.2,1.1,1.7c3,3,7.1,3.4,10.5,0.8
		c1.9-1.5,3.8-3,5.7-4.6c3.5-2.9,7.1-5.7,10.5-8.6c2.5-2.1,2.7-5.4,0.3-7.6c-2.6-2.3-5.4-4.5-8.3-6.4C33,11.4,29.5,12.2,28,14.6z
		 M22.9,14c-4,3.6-3.8,8.1-0.1,11.5C26.5,22.4,26.8,17.6,22.9,14z M14.1,20.6c-0.1,0-0.4,0-0.7,0C13.2,20.7,13,21,13,21.1
		c0.7,3.2,3.4,6.3,7.9,5.7c0.9-0.1,1-0.2,0.8-1C20.8,22.7,17.9,20.6,14.1,20.6z M33.3,20.6c-0.9,0.1-1.8,0.1-2.6,0.2
		c-3.2,0.6-5.5,2.7-6,5.3c-0.1,0.5,0,0.7,0.6,0.8C29.7,27.5,32.8,24.2,33.3,20.6z M23.9,28.3c0-0.6-0.5-1.1-1-1.2
		c-0.6,0-1.1,0.5-1.1,1.2c0,0.7,0.4,1.1,1,1.1C23.4,29.4,23.9,28.9,23.9,28.3z M18,31.4c-0.1-0.1-0.3-0.2-0.5-0.4
		c-3.1-2.3-6.2-4.5-9.3-6.7c-1.5-1.1-1.6-1.9-0.2-3c4.6-3.7,9.2-7.4,13.7-11.1c1.9-1.5,4-2,6.4-1.9c0.6,0,1.3,0.1,1.9,0.1
		c0.1-0.1,0.1-0.1,0.2-0.2c-0.4-0.6-0.6-1.2-1.1-1.7c-3-3-7.1-3.4-10.5-0.8c-1.9,1.5-3.8,3-5.7,4.6C9.5,13.2,6,16,2.5,18.9
		C0,21-0.2,24.4,2.2,26.5c2.6,2.3,5.4,4.5,8.3,6.4C13,34.6,16.5,33.8,18,31.4z"/>
</g>
</svg>
